# xmcd
#
# Track frame offsets: 
#        150
#        12115
#        27775
#        53385
#        64255
#        76695
#        93450
#        105297
#        114850
#        129840
#
# Disc length: 1895 seconds
#
# Revision: 1
# Processed by: cddbd v1.5.2PL0 Copyright (c) Steve Scherf et al.
# Submitted via: ExactAudioCopyFreeDBPlugin 1.0
#
DISCID=6007650a
DTITLE=Bobby Womack - Bobby Womack:  The Collection [BCM Records] [box
DTITLE=set]
DYEAR=1990
DGENRE=Soul
TTITLE0=Lookin' for a Love
TTITLE1=I Don't Wanna Be Hurt By Ya Love Again
TTITLE2=Doing it My Way
TTITLE3=Let it Hang Out
TTITLE4=Point of No Return
TTITLE5=You're Welcome, Stop on By
TTITLE6=You're Messing Up a Good Thing
TTITLE7=Don't Let Me Down
TTITLE8=Copper Kettle
TTITLE9=There's One Thing That Beats Failing
EXTD=
EXTT0=
EXTT1=
EXTT2=
EXTT3=
EXTT4=
EXTT5=
EXTT6=
EXTT7=
EXTT8=
EXTT9=
PLAYORDER=
